HIERARCHY
ROOT Hips
{
	OFFSET 0.00000 0.00000 0.00000
	CHANNELS 6 Xposition Yposition Zposition Zrotation Yrotation Xrotation 
	JOINT LHipJoint
	{
		OFFSET 0 0 0
		CHANNELS 3 Zrotation Yrotation Xrotation
		JOINT LeftUpLeg
		{
			OFFSET 1.54859 -1.61379 0.86856
			CHANNELS 3 Zrotation Yrotation Xrotation
			JOINT LeftLeg
			{
				OFFSET 2.25087 -6.18423 0.00000
				CHANNELS 3 Zrotation Yrotation Xrotation
				JOINT LeftFoot
				{
					OFFSET 2.40328 -6.60297 0.00000
					CHANNELS 3 Zrotation Yrotation Xrotation
					JOINT LeftToeBase
					{
						OFFSET 0.17435 -0.47901 2.02453
						CHANNELS 3 Zrotation Yrotation Xrotation
						End Site
						{
							OFFSET 0.00000 -0.00000 1.04844
						}
					}
				}
			}
		}
	}
	JOINT RHipJoint
	{
		OFFSET 0 0 0
		CHANNELS 3 Zrotation Yrotation Xrotation
		JOINT RightUpLeg
		{
			OFFSET -1.54669 -1.61379 0.86856
			CHANNELS 3 Zrotation Yrotation Xrotation
			JOINT RightLeg
			{
				OFFSET -2.28132 -6.26789 0.00000
				CHANNELS 3 Zrotation Yrotation Xrotation
				JOINT RightFoot
				{
					OFFSET -2.51636 -6.91365 0.00000
					CHANNELS 3 Zrotation Yrotation Xrotation
					JOINT RightToeBase
					{
						OFFSET -0.15124 -0.41552 2.21090
						CHANNELS 3 Zrotation Yrotation Xrotation
						End Site
						{
							OFFSET -0.00000 -0.00000 1.13399
						}
					}
				}
			}
		}
	}
	JOINT LowerBack
	{
		OFFSET 0 0 0
		CHANNELS 3 Zrotation Yrotation Xrotation
		JOINT Spine
		{
			OFFSET -0.04287 2.26161 -0.25690
			CHANNELS 3 Zrotation Yrotation Xrotation
			JOINT Spine1
			{
				OFFSET 0.02248 2.28395 -0.10140
				CHANNELS 3 Zrotation Yrotation Xrotation
				JOINT Neck
				{
					OFFSET 0 0 0
					CHANNELS 3 Zrotation Yrotation Xrotation
					JOINT Neck1
					{
						OFFSET -0.11644 1.38496 0.11345
						CHANNELS 3 Zrotation Yrotation Xrotation
						JOINT Head
						{
							OFFSET 0.29383 1.36600 0.06642
							CHANNELS 3 Zrotation Yrotation Xrotation
							End Site
							{
								OFFSET 0.11075 1.41395 -0.00294
							}
						}
					}
				}
				JOINT LeftShoulder
				{
					OFFSET 0 0 0
					CHANNELS 3 Zrotation Yrotation Xrotation
					JOINT LeftArm
					{
						OFFSET 3.51628 0.59542 -0.30346
						CHANNELS 3 Zrotation Yrotation Xrotation
						JOINT LeftForeArm
						{
							OFFSET 4.76405 -0.00000 0.00000
							CHANNELS 3 Zrotation Yrotation Xrotation
							JOINT LeftHand
							{
								OFFSET 3.13759 -0.00000 -0.00000
								CHANNELS 3 Zrotation Yrotation Xrotation
								JOINT LeftFingerBase
								{
									OFFSET 0 0 0
									CHANNELS 3 Zrotation Yrotation Xrotation
									JOINT LeftHandIndex1
									{
										OFFSET 0.73226 -0.00000 -0.00000
										CHANNELS 3 Zrotation Yrotation Xrotation
										End Site
										{
											OFFSET 0.59037 -0.00000 -0.00000
										}
									}
								}
								JOINT LThumb
								{
									OFFSET 0 0 0
									CHANNELS 3 Zrotation Yrotation Xrotation
									End Site
									{
										OFFSET 0.59938 -0.00000 0.59938
									}
								}
							}
						}
					}
				}
				JOINT RightShoulder
				{
					OFFSET 0 0 0
					CHANNELS 3 Zrotation Yrotation Xrotation
					JOINT RightArm
					{
						OFFSET -3.30990 0.84213 -0.36430
						CHANNELS 3 Zrotation Yrotation Xrotation
						JOINT RightForeArm
						{
							OFFSET -5.10161 -0.00000 -0.00000
							CHANNELS 3 Zrotation Yrotation Xrotation
							JOINT RightHand
							{
								OFFSET -3.23267 -0.00000 -0.00000
								CHANNELS 3 Zrotation Yrotation Xrotation
								JOINT RightFingerBase
								{
									OFFSET 0 0 0
									CHANNELS 3 Zrotation Yrotation Xrotation
									JOINT RightHandIndex1
									{
										OFFSET -0.70200 -0.00000 -0.00000
										CHANNELS 3 Zrotation Yrotation Xrotation
										End Site
										{
											OFFSET -0.56597 -0.00000 -0.00000
										}
									}
								}
								JOINT RThumb
								{
									OFFSET 0 0 0
									CHANNELS 3 Zrotation Yrotation Xrotation
									End Site
									{
										OFFSET -0.57461 -0.00000 0.57461
									}
								}
							}
						}
					}
				}
			}
		}
	}
}
MOTION
Frames: 14
Frame Time: .0083333
29.3112 15.2324 12.1353 0 0 0 0 0 0 -21 0 0 0 0 0 0 0 0 0 0 0 0 0 0 21 0 0 0 0 0 0 0 0 0 0 0 0 0 0 0 0 0 0 0 0 0 0 -16 0 0 21 0 0 11 0 0 0 -8 0 0 0 0 0 0 0 0 0 0 0 0 0 0 0 0 0 0 0 0 8 0 0 0 0 0 0 0 0 0 0 0 0 0 0 0 0 0
29.3112 15.2324 12.1353 -179.4630 -32.7169 173.6610 0.0000 0.0000 0.0000 -8.8884 13.1341 -14.5738 5.1418 13.5417 41.4316 1.2817 1.5858 -22.0163 1.1066 -6.6836 -18.7814 0.0000 0.0000 0.0000 18.4919 -5.9577 -5.4126 -4.1069 -12.3014 36.8066 -1.2062 -13.1666 -29.2455 -1.0529 6.5248 -18.3151 -0.5479 1.8662 4.9384 0.9338 1.9666 7.4123 1.2428 0.7185 4.8533 -11.4952 2.1502 -5.5360 14.4115 3.4553 -3.4134 6.3076 1.7749 -0.5253 0.0000 -0.0000 0.0000 -94.9526 -7.0029 16.1767 11.0904 -18.4267 -1.8044 -0.0000 0.0000 -3.0802 23.0354 20.0058 8.2767 -7.1250 0.0000 -0.0000 -5.4761 51.4843 -0.8768 0.0000 -0.0000 0.0000 93.0145 5.6903 14.3041 -12.5857 20.6772 -2.3049 0.0000 0.0000 17.4298 -21.9900 29.6852 -11.3092 7.1250 -0.0000 -0.0000 5.1712 1.4882 5.3253
29.2815 15.2272 12.1207 -179.3460 -32.4647 173.6800 0.0000 0.0000 0.0000 -8.8136 13.2488 -14.6104 5.1863 13.5906 41.6217 1.3173 1.5588 -22.3002 1.0872 -6.6268 -18.6142 0.0000 0.0000 0.0000 18.5174 -5.8690 -5.4662 -4.1353 -12.3384 36.9397 -1.2496 -13.0011 -29.3931 -1.0775 6.5982 -18.5302 -0.4941 1.8650 5.0289 0.9509 1.9633 7.3926 1.2276 0.7190 4.7829 -11.3963 2.2346 -5.6990 14.2634 3.5700 -3.3345 6.2465 1.8382 -0.4875 -0.0000 0.0000 0.0000 -94.7702 -6.6392 17.3773 11.6209 -19.2336 -1.9756 -0.0000 0.0000 -4.4048 23.1942 20.6950 8.6104 -7.1250 0.0000 -0.0000 -5.5175 52.2390 -0.9857 -0.0000 0.0000 0.0000 93.0149 5.6621 14.2217 -12.5653 20.6470 -2.2977 0.0000 0.0000 17.7059 -22.0651 29.6526 -11.3398 7.1250 -0.0000 -0.0000 5.1233 1.4700 5.2739
29.2492 15.2221 12.1061 -179.3910 -32.2309 173.7200 0.0000 0.0000 0.0000 -8.8893 13.3888 -14.6072 5.2444 13.6538 41.8681 1.3549 1.5562 -22.6058 1.0827 -6.6135 -18.5752 0.0000 0.0000 0.0000 18.3232 -5.8862 -5.4846 -4.1715 -12.3852 37.1088 -1.4240 -12.1245 -29.8122 -0.9336 6.1547 -17.2339 -0.6180 1.8513 5.2146 0.9768 1.9386 7.3645 1.3181 0.6996 4.6441 -11.3597 2.3860 -5.9396 14.1138 3.7754 -3.0685 6.1978 1.9547 -0.3958 -0.0000 0.0000 0.0000 -94.6952 -6.1861 18.7473 12.0926 -19.9433 -2.1338 -0.0000 0.0000 -4.9740 23.6710 21.6741 9.1964 -7.1250 0.0000 -0.0000 -5.3324 53.3593 -1.0988 -0.0000 0.0000 0.0000 92.8859 5.5476 14.3030 -12.5816 20.6711 -2.3035 0.0000 0.0000 17.8897 -21.8169 29.7126 -11.2226 7.1250 -0.0000 -0.0000 5.2751 1.4808 5.4325
29.2158 15.2110 12.0913 -179.5040 -32.0385 173.8130 0.0000 0.0000 0.0000 -9.0572 13.4031 -14.6298 5.3186 13.7339 42.1817 1.3937 1.6895 -22.9730 1.1093 -6.6915 -18.8045 0.0000 0.0000 0.0000 18.0611 -5.9674 -5.5147 -4.1975 -12.4186 37.2294 -1.4832 -11.7200 -29.8747 -0.9026 6.0546 -16.9429 -0.7571 1.8307 5.3885 0.9568 1.9084 7.3172 1.3700 0.6797 4.4931 -11.1775 2.5153 -6.0850 13.7709 3.9347 -2.7521 6.0625 2.0458 -0.2929 -0.0000 0.0000 0.0000 -94.5298 -5.6958 19.3284 12.6852 -20.8243 -2.3402 -0.0000 0.0000 -6.2406 23.1024 21.5913 8.9213 -7.1250 0.0000 -0.0000 -5.8885 53.1647 -1.1859 -0.0000 0.0000 0.0000 92.7320 5.3755 14.6417 -12.6323 20.7461 -2.3214 0.0000 0.0000 17.6285 -21.7012 29.7156 -11.1596 7.1250 -0.0000 -0.0000 5.3425 1.4604 5.5007
29.1795 15.1845 12.0788 -179.3080 -31.7485 173.8090 0.0000 0.0000 0.0000 -8.9237 13.4246 -14.7934 5.4232 13.8451 42.6206 1.4401 1.6656 -23.3309 1.0716 -6.5805 -18.4784 0.0000 0.0000 0.0000 18.0750 -6.4582 -5.8701 -4.2136 -12.4393 37.3042 -0.9508 -14.1608 -28.3971 -1.9060 8.6675 -24.7607 -0.6568 1.8254 5.4766 1.0240 1.8992 7.2927 1.3809 0.6780 4.4193 -11.1443 2.5657 -6.0233 13.5635 4.0004 -2.7661 5.9899 2.0779 -0.3120 -0.0000 0.0000 0.0000 -94.2956 -5.2146 20.1536 13.4156 -21.8931 -2.6062 -0.0000 0.0000 -7.5811 22.9017 21.7217 8.8862 -7.1250 0.0000 -0.0000 -6.1360 53.2638 -1.2510 -0.0000 0.0000 0.0000 92.5333 5.2832 15.1425 -12.6895 20.8305 -2.3417 0.0000 0.0000 16.9531 -21.8468 29.6264 -11.2102 7.1250 -0.0000 -0.0000 5.2462 1.3985 5.3951
29.1411 15.1742 12.0658 -178.8800 -31.4454 173.6900 0.0000 0.0000 0.0000 -8.5638 13.5591 -14.9577 5.5278 13.9546 43.0560 1.4895 1.4809 -23.6413 1.0171 -6.4164 -17.9974 0.0000 0.0000 0.0000 18.3097 -6.5258 -5.9578 -4.2251 -12.4541 37.3578 -1.0435 -13.6046 -28.5205 -1.8248 8.4913 -24.2165 -0.3056 1.8102 5.5664 1.1226 1.8783 7.2864 1.2845 0.6800 4.3717 -11.2343 2.6317 -6.0677 13.6282 4.1016 -2.8472 6.0260 2.1283 -0.3441 -0.0000 0.0000 0.0000 -94.0268 -4.7846 20.7457 14.1268 -22.9156 -2.8773 -0.0000 0.0000 -7.9961 22.1173 22.3033 8.7680 -7.1250 0.0000 -0.0000 -7.1370 53.7220 -1.5366 -0.0000 0.0000 0.0000 92.3957 5.2492 15.5188 -12.7550 20.9272 -2.3651 0.0000 0.0000 16.2790 -21.9489 29.4981 -11.2234 7.1250 -0.0000 -0.0000 5.1697 1.2875 5.3060
29.1046 15.1562 12.0516 -178.6540 -31.1792 173.6880 0.0000 0.0000 0.0000 -8.3895 13.6977 -15.1488 5.6440 14.0743 43.5359 1.5382 1.3610 -23.9670 0.9779 -6.2950 -17.6429 0.0000 0.0000 0.0000 18.4548 -6.3365 -5.9484 -4.2301 -12.4605 37.3812 -0.9442 -14.1184 -28.3088 -2.0443 8.9577 -25.6631 -0.0623 1.8403 5.6690 1.0937 1.9232 7.2699 1.1147 0.7145 4.3052 -11.2281 2.7163 -6.3054 13.8058 4.2204 -2.7299 6.0865 2.1942 -0.2890 0.0000 0.0000 0.0000 -93.5828 -4.1671 22.3433 15.0471 -24.2117 -3.2452 -0.0000 0.0000 -10.5091 21.9296 22.7315 8.8425 -7.1250 0.0000 -0.0000 -7.4843 54.1303 -1.6868 0.0000 0.0000 0.0000 92.4373 5.1607 15.6197 -12.8716 21.0988 -2.4069 0.0000 0.0000 15.9015 -22.0400 29.3170 -11.2122 7.1250 -0.0000 -0.0000 5.0925 1.1200 5.2116
29.0670 15.1478 12.0346 -178.6370 -30.8793 173.8180 0.0000 0.0000 0.0000 -8.4543 13.7567 -15.2694 5.7430 14.1746 43.9413 1.5842 1.4520 -24.3512 0.9425 -6.1834 -17.3175 0.0000 0.0000 0.0000 18.3827 -6.1275 -5.9675 -4.2471 -12.4822 37.4599 -0.9858 -13.9554 -28.4467 -1.9976 8.8610 -25.3614 -0.0919 1.8536 5.7695 1.0717 1.9414 7.2374 1.1049 0.7233 4.2139 -11.0875 2.8046 -6.5572 13.5934 4.3353 -2.4818 6.0026 2.2630 -0.1841 0.0000 0.0000 0.0000 -93.1312 -3.5282 23.4603 15.9625 -25.4697 -3.6298 -0.0000 0.0000 -12.4219 21.7963 22.7216 8.7806 -7.1250 0.0000 -0.0000 -7.6177 54.0943 -1.7104 0.0000 0.0000 0.0000 92.3663 5.0082 15.8779 -13.0195 21.3157 -2.4604 0.0000 0.0000 15.6338 -22.1949 29.2758 -11.2831 7.1250 -0.0000 -0.0000 4.9970 1.1093 5.1121
29.0263 15.1414 12.0191 -178.5560 -30.5747 173.8580 0.0000 0.0000 0.0000 -8.4382 13.8843 -15.3846 5.8464 14.2779 44.3623 1.6257 1.5855 -24.7145 0.9710 -6.2735 -17.5801 0.0000 0.0000 0.0000 18.2882 -6.1568 -6.0051 -4.2662 -12.5065 37.5481 -1.0896 -13.3950 -28.6486 -1.8856 8.6236 -24.6249 -0.1459 1.8067 5.9962 1.1461 1.8749 7.1739 1.2063 0.6861 4.0172 -10.7620 2.8546 -6.8125 12.8985 4.3871 -2.0783 5.7380 2.3030 -0.0130 -0.0000 0.0000 0.0000 -92.8573 -2.7776 24.1010 16.8502 -26.6599 -4.0199 -0.0000 0.0000 -13.5617 21.4683 22.7665 8.6532 -7.1250 0.0000 -0.0000 -7.9714 54.0774 -1.7873 -0.0000 0.0000 0.0000 92.0944 4.7688 16.4260 -13.1923 21.5683 -2.5235 0.0000 0.0000 15.1899 -22.2980 29.3929 -11.3799 7.1250 -0.0000 -0.0000 4.9529 1.2509 5.0787
28.9811 15.1317 12.0042 -178.4100 -30.2514 173.8320 0.0000 0.0000 0.0000 -8.3471 14.0720 -15.4845 5.9530 14.3827 44.7929 1.6791 1.5414 -25.0896 0.9386 -6.1708 -17.2809 0.0000 0.0000 0.0000 18.2046 -6.2437 -6.0223 -4.2912 -12.5381 37.6633 -1.2440 -12.5214 -28.9367 -1.7206 8.2580 -23.5006 -0.0042 1.8365 6.2604 1.1614 1.9179 7.1152 1.1337 0.7139 3.8117 -10.6218 2.9635 -7.0680 12.9449 4.5218 -1.8132 5.7375 2.3794 0.0917 -0.0000 0.0000 0.0000 -92.5148 -1.9298 24.9603 17.8232 -27.9302 -4.4661 -0.0000 0.0000 -14.5447 21.9487 22.6654 8.8270 -7.1250 0.0000 -0.0000 -7.4403 54.0655 -1.6650 -0.0000 0.0000 0.0000 91.9270 4.4480 16.8247 -13.4568 21.9529 -2.6216 0.0000 0.0000 14.6016 -22.1810 29.4103 -11.3214 7.1250 -0.0000 -0.0000 5.0232 1.2447 5.1508
28.9328 15.1211 11.9889 -178.2540 -29.8783 173.8690 0.0000 0.0000 0.0000 -8.3091 14.1509 -15.5889 6.0632 14.4893 45.2347 1.7383 1.5321 -25.5139 0.8521 -5.8873 -16.4577 0.0000 0.0000 0.0000 18.1494 -6.2078 -6.1098 -4.3176 -12.5715 37.7848 -1.2994 -12.1482 -28.9971 -1.7280 8.2749 -23.5523 0.2245 1.9119 6.4115 1.1457 2.0233 7.1006 0.9821 0.7760 3.7194 -10.3892 2.9547 -7.1996 12.8117 4.4967 -1.7808 5.6601 2.3675 0.1334 -0.0000 -0.0000 0.0000 -92.1534 -1.0977 25.8493 18.9403 -29.3444 -5.0016 -0.0000 0.0000 -15.7166 22.0742 23.0223 9.0120 -7.1250 0.0000 -0.0000 -7.4429 54.4599 -1.7373 -0.0000 -0.0000 0.0000 91.7863 4.1710 17.1906 -13.7873 22.4299 -2.7464 0.0000 0.0000 13.9538 -21.8864 29.3741 -11.1472 7.1250 -0.0000 -0.0000 5.1894 1.1475 5.3140
28.8880 15.1140 11.9724 -178.0100 -29.5079 174.0060 0.0000 0.0000 0.0000 -8.2024 14.2778 -15.9147 6.1795 14.6000 45.6979 1.7709 1.6728 -25.8026 0.8545 -5.8952 -16.4805 0.0000 0.0000 0.0000 18.2821 -5.9040 -6.2331 -4.3472 -12.6086 37.9204 -1.4091 -11.6164 -29.3002 -1.6020 7.9827 -22.6614 0.3265 1.9433 6.4531 1.2694 2.0656 7.0636 1.0497 0.7984 3.6562 -10.2980 3.0093 -7.4750 12.5230 4.5771 -1.5897 5.5632 2.4172 0.2315 0.0000 -0.0000 0.0000 -92.0041 -0.2230 26.4713 20.0408 -30.6914 -5.5521 -0.0000 0.0000 -16.3987 21.7042 23.4134 8.9876 -7.1250 0.0000 -0.0000 -7.9756 54.7911 -1.9272 0.0000 -0.0000 0.0000 91.4063 3.8932 17.8137 -14.1532 22.9534 -2.8876 0.0000 0.0000 13.0729 -21.6716 29.3672 -11.0273 7.1250 -0.0000 -0.0000 5.3133 1.0970 5.4373
28.8431 15.1099 11.9538 -177.8500 -29.0416 174.1680 0.0000 0.0000 0.0000 -8.1412 14.5361 -16.2363 6.2980 14.7110 46.1663 1.8071 1.6651 -26.0549 0.7954 -5.6926 -15.8951 0.0000 0.0000 0.0000 18.2869 -5.6646 -6.3690 -4.3758 -12.6444 38.0516 -1.5900 -10.5489 -29.6716 -1.3559 7.3710 -20.8193 0.2896 1.9806 6.5637 1.4134 2.1131 6.9954 1.2129 0.8177 3.5155 -10.4427 3.1364 -7.6811 12.3966 4.7720 -1.4266 5.5558 2.5243 0.2882 0.0000 -0.0000 0.0000 -91.4840 0.6491 28.3725 21.0648 -31.9040 -6.0842 -0.0000 0.0000 -18.9060 22.5565 22.9526 9.2009 -7.1250 0.0000 -0.0000 -6.9174 54.4823 -1.6175 0.0000 -0.0000 0.0000 90.9290 3.4441 18.8576 -14.6482 23.6538 -3.0834 0.0000 0.0000 11.6637 -21.7924 29.1127 -11.0079 7.1250 -0.0000 -0.0000 5.2096 0.8599 5.3090
